<svg width="27" height="27" viewBox="0 0 27 27" fill="none" xmlns="http://www.w3.org/2000/svg">
<path d="M18 15H15V18H18V15Z" fill="#9F0"/>
<path d="M21 18H18V21H21V18Z" fill="#9F0"/>
<path d="M24 21H21V24H24V21Z" fill="#9F0"/>
<path d="M27 24H24V27H27V24Z" fill="#9F0"/>
<path d="M6 3H3V6H6V3Z" fill="#9F0"/>
<path d="M9 6H6V9H9V6Z" fill="#9F0"/>
<path d="M12 9H9V12H12V9Z" fill="#9F0"/>
<path d="M15 12H12V15H15V12Z" fill="#9F0"/>
<path d="M3 0H0V3H3V0Z" fill="#9F0"/>
<path d="M9 18H6V21H9V18Z" fill="#9F0"/>
<path d="M6 21H3V24H6V21Z" fill="#9F0"/>
<path d="M3 24H0V27H3V24Z" fill="#9F0"/>
<path d="M24 3H21V6H24V3Z" fill="#9F0"/>
<path d="M21 6H18V9H21V6Z" fill="#9F0"/>
<path d="M18 9H15V12H18V9Z" fill="#9F0"/>
<path d="M12 15H9V18H12V15Z" fill="#9F0"/>
<path d="M27 0H24V3H27V0Z" fill="#9F0"/>
</svg>
