<svg width="27" height="21" viewBox="0 0 27 21" fill="none" xmlns="http://www.w3.org/2000/svg">
<path d="M27 9H24V12H27V9Z" fill="#9f0"/>
<path d="M21 12H18V18H21V12Z" fill="#9f0"/>
<path d="M24 6H21V15H24V6Z" fill="#9f0"/>
<path d="M18 15H15V21H18V15Z" fill="#9f0"/>
<path d="M18 0H15V6H18V0Z" fill="#9f0"/>
<path d="M21 3H18V9H21V3Z" fill="#9f0"/>
<path d="M12 9H9V12H12V9Z" fill="#9f0"/>
<path d="M6 12H3V18H6V12Z" fill="#9f0"/>
<path d="M9 6H6V15H9V6Z" fill="#9f0"/>
<path d="M3 15H0V21H3V15Z" fill="#9f0"/>
<path d="M3 0H0V6H3V0Z" fill="#9f0"/>
<path d="M6 3H3V9H6V3Z" fill="#9f0"/>
</svg>
