<svg width="27" height="21" viewBox="0 0 27 21" fill="none" xmlns="http://www.w3.org/2000/svg">
<path d="M21 6H18V15H21V6Z" fill="#e5e5e5"/>
<path d="M24 12H21V18H24V12Z" fill="#e5e5e5"/>
<path d="M18 9H15V12H18V9Z" fill="#e5e5e5"/>
<path d="M24 3H21V9H24V3Z" fill="#e5e5e5"/>
<path d="M27 15H24V21H27V15Z" fill="#e5e5e5"/>
<path d="M27 0H24V6H27V0Z" fill="#e5e5e5"/>
<path d="M6 6H3V15H6V6Z" fill="#e5e5e5"/>
<path d="M9 12H6V18H9V12Z" fill="#e5e5e5"/>
<path d="M3 9H0V12H3V9Z" fill="#e5e5e5"/>
<path d="M9 3H6V9H9V3Z" fill="#e5e5e5"/>
<path d="M12 15H9V21H12V15Z" fill="#e5e5e5"/>
<path d="M12 0H9V6H12V0Z" fill="#e5e5e5"/>
</svg>
